<svg width="184" height="185" viewBox="0 0 184 185" fill="none" xmlns="http://www.w3.org/2000/svg">
<rect y="0.0302734" width="184" height="184" rx="50" fill="#6100E0"/>
<g filter="url(#filter0_d_3672_4)">
<path d="M131.281 59.5618L104.86 71.6166C103.675 69.516 102.271 67.7608 100.647 66.3511C99.0536 64.9272 97.2623 63.8957 95.2727 63.2564C93.3001 62.5717 91.1733 62.3347 88.8923 62.5453C86.5971 62.7247 84.2002 63.3844 81.7018 64.5243C77.3295 66.5192 74.1131 69.2696 72.0527 72.7754C70.0235 76.267 69.133 80.3522 69.3811 85.0309C69.6605 89.6954 71.0683 94.8072 73.6047 100.366C76.2836 106.238 79.3086 110.8 82.6797 114.054C86.0679 117.262 89.717 119.182 93.6271 119.813C97.5229 120.412 101.579 119.75 105.795 117.827C108.2 116.729 110.219 115.45 111.854 113.987C113.474 112.493 114.723 110.848 115.601 109.051C116.479 107.254 116.985 105.345 117.118 103.322C117.269 101.253 117.03 99.1171 116.402 96.9134L142.909 85.0459C144.449 89.2484 145.197 93.9065 145.153 99.0203C145.095 104.103 144.066 109.251 142.068 114.464C140.087 119.632 136.933 124.504 132.607 129.082C128.281 133.659 122.605 137.55 115.578 140.757C106.771 144.775 98.0074 146.49 89.2876 145.903C80.599 145.302 72.5505 142.258 65.1419 136.771C57.7646 131.27 51.6536 123.21 46.8089 112.592C41.9357 101.911 39.8931 91.9763 40.6812 82.7875C41.4551 73.5674 44.4849 65.4876 49.7706 58.5481C55.0421 51.5774 61.9877 46.1257 70.6073 42.1929C76.666 39.4285 82.6183 37.7127 88.4641 37.0453C94.3099 36.3779 99.8802 36.7606 105.175 38.1935C110.455 39.5951 115.321 42.0726 119.772 45.6261C124.224 49.1795 128.06 53.8247 131.281 59.5618Z" fill="white"/>
</g>
<defs>
<filter id="filter0_d_3672_4" x="24.3242" y="22.2725" width="150.914" height="157.602" filterUnits="userSpaceOnUse" color-interpolation-filters="sRGB">
<feFlood flood-opacity="0" result="BackgroundImageFix"/>
<feColorMatrix in="SourceAlpha" type="matrix" values="0 0 0 0 0 0 0 0 0 0 0 0 0 0 0 0 0 0 127 0" result="hardAlpha"/>
<feOffset dx="8" dy="10"/>
<feGaussianBlur stdDeviation="4"/>
<feComposite in2="hardAlpha" operator="out"/>
<feColorMatrix type="matrix" values="0 0 0 0 0 0 0 0 0 0 0 0 0 0 0 0 0 0 0.3 0"/>
<feBlend mode="normal" in2="BackgroundImageFix" result="effect1_dropShadow_3672_4"/>
<feBlend mode="normal" in="SourceGraphic" in2="effect1_dropShadow_3672_4" result="shape"/>
</filter>
</defs>
</svg>
